<?xml version="1.0" encoding="UTF-8" standalone="no"?>
<svg
   xmlns:dc="http://purl.org/dc/elements/1.1/"
   xmlns:cc="http://creativecommons.org/ns#"
   xmlns:rdf="http://www.w3.org/1999/02/22-rdf-syntax-ns#"
   xmlns:svg="http://www.w3.org/2000/svg"
   xmlns="http://www.w3.org/2000/svg"
   xmlns:sodipodi="http://sodipodi.sourceforge.net/DTD/sodipodi-0.dtd"
   xmlns:inkscape="http://www.inkscape.org/namespaces/inkscape"
   inkscape:version="1.0 (4035a4fb49, 2020-05-01)"
   inkscape:export-ydpi="200"
   inkscape:export-xdpi="200"
   inkscape:export-filename="D:\Usuario\Documents\front\Adalab\modulo-1\proyecto\project-promo-t-module-1-team-1\src\images\favicon.png"
   sodipodi:docname="favicon.svg"
   xml:space="preserve"
   viewBox="0 0 512 512"
   id="_x32_"
   version="1.1"><metadata
   id="metadata27"><rdf:RDF><cc:Work
       rdf:about=""><dc:format>image/svg+xml</dc:format><dc:type
         rdf:resource="http://purl.org/dc/dcmitype/StillImage" /></cc:Work></rdf:RDF></metadata><defs
   id="defs25" /><sodipodi:namedview
   inkscape:current-layer="_x32_"
   inkscape:window-maximized="1"
   inkscape:window-y="-9"
   inkscape:window-x="-9"
   inkscape:cy="251.51136"
   inkscape:cx="176.20228"
   inkscape:zoom="1.4142136"
   showgrid="false"
   id="namedview23"
   inkscape:window-height="1351"
   inkscape:window-width="2560"
   inkscape:pageshadow="2"
   inkscape:pageopacity="0"
   guidetolerance="10"
   gridtolerance="10"
   objecttolerance="10"
   borderopacity="1"
   bordercolor="#666666"
   pagecolor="#ffffff" />
<style
   id="style2"
   type="text/css">
	.st0{fill:#000000;}
</style>
<g
   style="fill:#e38b29;fill-opacity:1"
   id="g20">
	<path
   style="fill:#e38b29;fill-opacity:1"
   id="path4"
   d="M414.5,171.662c21.175,0,38.333-17.144,38.333-38.334c0-21.182-17.158-38.326-38.333-38.34   c-21.183,0.014-38.334,17.158-38.334,38.34C376.166,154.518,393.317,171.662,414.5,171.662z M396.993,115.842   c4.508-4.508,10.652-7.253,17.506-7.259c6.847,0.006,12.984,2.752,17.492,7.259c4.48,4.502,7.253,10.645,7.253,17.485   c0,6.862-2.773,13.005-7.253,17.506c-4.508,4.48-10.644,7.232-17.492,7.232c-6.855,0-12.999-2.752-17.506-7.232   c-4.48-4.501-7.246-10.644-7.246-17.506C389.748,126.488,392.514,120.344,396.993,115.842z"
   class="st0" />
	<rect
   style="fill:#e38b29;fill-opacity:1"
   id="rect6"
   height="26.608"
   width="13.588"
   class="st0"
   y="55.594"
   x="407.702" />
	<rect
   style="fill:#e38b29;fill-opacity:1"
   id="rect8"
   height="26.587"
   width="13.588"
   class="st0"
   y="184.467"
   x="407.702" />
	<polygon
   style="fill:#e38b29;fill-opacity:1"
   id="polygon10"
   points="373.606,101.87 350.575,88.581 343.777,100.349 366.816,113.653  "
   class="st0" />
	<polygon
   style="fill:#e38b29;fill-opacity:1"
   id="polygon12"
   points="485.222,166.3 462.183,153.01 455.392,164.778 478.396,178.082  "
   class="st0" />
	<polygon
   style="fill:#e38b29;fill-opacity:1"
   id="polygon14"
   points="373.606,164.778 366.816,153.01 343.777,166.3 350.575,178.082  "
   class="st0" />
	<polygon
   style="fill:#e38b29;fill-opacity:1"
   id="polygon16"
   points="485.222,100.349 478.396,88.581 455.392,101.87 462.183,113.653  "
   class="st0" />
	<path
   style="fill:#e38b29;fill-opacity:1"
   id="path18"
   d="M256.004,160.583L0,456.406h512L256.004,160.583z M256.004,189.559L470.51,437.442H210.488L256.004,189.559z"
   class="st0" />
</g>
<path
   id="path852"
   d="m 406.30909,170.3104 c -6.29247,-1.36727 -13.76771,-5.55069 -18.65195,-10.43832 -7.3217,-7.32679 -10.79728,-15.96695 -10.79728,-26.84166 0,-10.40198 3.57066,-18.87591 11.14558,-26.45083 14.47234,-14.472334 37.21145,-14.870256 52.10276,-0.91177 15.85839,14.86498 16.32813,39.02719 1.05652,54.34488 -9.16192,9.18956 -22.21184,13.04501 -34.85563,10.2977 z m 18.76679,-14.21734 c 5.18374,-2.49224 9.29034,-6.56588 11.84002,-11.74501 2.07662,-4.21822 2.28954,-5.23649 2.28954,-10.94941 0,-5.71052 -0.21339,-6.73215 -2.28524,-10.94067 -4.42812,-8.99479 -12.38804,-13.93799 -22.44401,-13.93799 -10.05777,0 -18.01725,4.94376 -22.44401,13.94034 -2.07658,4.22028 -2.28376,5.21792 -2.26903,10.92603 0.0136,5.26615 0.30651,6.9062 1.81193,10.14476 3.06907,6.60239 7.90829,10.97328 15.12998,13.66572 3.98589,1.48605 14.26921,0.8682 18.37082,-1.10377 z"
   style="fill:#e38b29;stroke-width:6.34508;stroke-linecap:round;fill-opacity:1" /><path
   id="path854"
   d="m 405.42041,169.70581 c -11.36945,-3.30412 -20.9237,-11.66285 -25.69412,-22.47903 -1.65007,-3.74126 -1.79858,-4.87615 -1.80956,-13.82814 -0.0108,-8.83174 0.14803,-10.11406 1.68294,-13.58367 4.91684,-11.11441 14.04746,-19.33351 25.07642,-22.573019 2.1774,-0.639561 6.33767,-1.111339 9.8001,-1.111339 14.36452,0 26.75646,7.718248 33.26282,20.717548 6.77426,13.53457 5.09006,28.27828 -4.60759,40.33527 -3.4998,4.35126 -10.80648,9.45837 -16.46475,11.50827 -5.14501,1.86395 -16.46308,2.40418 -21.24626,1.01411 z m 20.28607,-13.54012 c 4.01048,-1.94143 8.92709,-6.85477 11.49364,-11.48597 1.86853,-3.37166 2.00532,-4.14121 2.00532,-11.28108 0,-7.19819 -0.12665,-7.89478 -2.08979,-11.49388 -4.99107,-9.15028 -12.22409,-13.44617 -22.63946,-13.44617 -10.41537,0 -17.64839,4.29589 -22.63946,13.44617 -1.96314,3.5991 -2.08979,4.29569 -2.08979,11.49388 0,7.18715 0.12786,7.89341 2.0607,11.38283 2.80824,5.0698 6.87912,8.98105 11.87127,11.40578 3.96331,1.925 4.5601,2.01632 11.53272,1.76469 5.75208,-0.20758 8.0372,-0.59652 10.49485,-1.78625 z"
   style="fill:#e38b29;fill-opacity:1;stroke-width:6.34508;stroke-linecap:round" /><path
   id="path856"
   d="m 459.23265,107.72044 c -1.6283,-2.8113 -2.96054,-5.28981 -2.96054,-5.50779 0,-0.29775 11.61173,-7.139221 21.63002,-12.74412 0.21107,-0.118087 1.82171,2.249446 3.5792,5.261184 l 3.19544,5.475886 -10.97365,6.32169 c -6.0355,3.47693 -11.0943,6.31785 -11.24178,6.31315 -0.14748,-0.005 -1.60039,-2.3087 -3.22869,-5.12 z"
   style="fill:#e38b29;fill-opacity:1;stroke-width:6.34508;stroke-linecap:round" /><path
   id="path858"
   d="m 467.40905,171.22663 c -5.93375,-3.4421 -10.89559,-6.36317 -11.0263,-6.49127 -0.20695,-0.20281 3.57533,-7.23651 5.39992,-10.04192 0.52496,-0.80717 2.70882,0.18452 11.5007,5.22247 5.96898,3.42036 10.84915,6.53321 10.84482,6.91745 -0.004,0.38424 -1.34045,2.93805 -2.96918,5.67513 l -2.96132,4.97651 z"
   style="fill:#e38b29;fill-opacity:1;stroke-width:6.34508;stroke-linecap:round" /><path
   id="path860"
   d="m 408.2068,197.48571 v -12.88707 h 6.26939 6.26939 v 12.88707 12.88708 h -6.26939 -6.26939 z"
   style="fill:#e38b29;fill-opacity:1;stroke-width:6.34508;stroke-linecap:round" /><path
   id="path862"
   d="m 347.7631,172.36932 c -1.62072,-2.82738 -2.94363,-5.38591 -2.93979,-5.68562 0.007,-0.53488 20.81883,-12.7354 21.72439,-12.7354 0.56473,0 6.38233,10.43142 6.01979,10.79396 -0.24288,0.24288 -18.5128,10.95383 -20.79894,12.19362 -0.82082,0.44513 -1.72072,-0.58084 -4.00545,-4.56656 z"
   style="fill:#e38b29;fill-opacity:1;stroke-width:6.34508;stroke-linecap:round" /><path
   id="path864"
   d="m 355.9619,106.90841 c -5.55537,-3.22691 -10.41414,-5.98942 -10.79727,-6.13889 -0.68961,-0.26905 0.89574,-3.807135 4.02945,-8.992658 l 1.57864,-2.612253 10.43133,6.004316 c 5.73723,3.302373 10.70279,6.254005 11.03458,6.559185 0.57272,0.52678 -4.98458,11.16141 -5.79219,11.08414 -0.21112,-0.0202 -4.92916,-2.67692 -10.48454,-5.90384 z"
   style="fill:#e38b29;fill-opacity:1;stroke-width:6.34508;stroke-linecap:round" /><path
   id="path866"
   d="M 408.2068,68.963265 V 55.727891 h 6.26939 6.26939 v 13.235374 13.235374 h -6.26939 -6.26939 z"
   style="fill:#e38b29;fill-opacity:1;stroke-width:6.34508;stroke-linecap:round" /><path
   id="path868"
   d="M 5.0117498,451.22177 C 7.4790027,448.44408 64.923549,382.11339 132.6663,303.82024 l 123.16863,-142.3512 2.26284,2.33487 c 1.24455,1.28417 55.80104,64.24507 121.23662,139.9131 65.43559,75.66802 121.92471,140.94802 125.53138,145.06666 l 6.55758,7.48844 H 255.9746 0.52583577 Z M 469.72413,435.8966 C 468.94345,435.03456 420.72733,379.31537 362.5772,312.07619 304.42706,244.83701 256.60599,189.72726 256.30815,189.61008 c -0.29784,-0.11717 -0.87865,1.45018 -1.29069,3.483 -1.44336,7.12092 -44.64467,242.85319 -44.64467,243.60815 0,0.54984 36.39055,0.76272 130.38537,0.76272 h 130.38538 z"
   style="fill:#e38b29;fill-opacity:1;stroke-width:6.34508;stroke-linecap:round" /><path
   id="path870"
   d="m 412.63037,171.59482 c -8.34888,-0.42183 -16.20674,-3.47808 -22.59592,-8.78849 -1.79163,-1.48913 -3.6992,-3.40457 -5.13946,-5.16065 -3.06841,-3.74128 -5.41671,-8.04173 -6.87383,-12.58808 -0.2956,-0.92228 -0.80847,-2.76749 -0.80847,-2.9087 0,-0.0134 0.12244,-0.0242 0.2721,-0.0241 l 0.27211,1.7e-4 0.19063,0.79438 c 1.31326,5.4726 3.76817,10.2321 7.57325,14.68282 3.40603,3.98396 7.61449,7.2154 12.72048,9.76734 3.13459,1.56666 5.9249,2.55237 8.81632,3.11449 6.56564,1.27641 13.23598,0.83059 19.483,-1.30219 4.79843,-1.63822 9.13525,-4.17687 13.03945,-7.63291 0.81175,-0.71856 2.50675,-2.42968 3.26265,-3.29367 2.44452,-2.79405 4.44135,-5.81672 5.90975,-8.94578 l 0.3623,-0.77204 0.0136,0.59224 0.0136,0.59225 -0.37094,0.74013 c -1.48224,2.95753 -3.27236,5.60788 -5.55783,8.22858 -0.66784,0.7658 -2.65878,2.75077 -3.44489,3.43457 -3.43637,2.98912 -7.14257,5.24631 -11.29401,6.87841 -4.97602,1.95627 -10.50717,2.86089 -15.84382,2.59126 z"
   style="fill:#e38b29;fill-opacity:1;stroke-width:0.396568;stroke-linecap:round" /><path
   id="path872"
   d="m 406.29122,170.32216 c -0.51319,-0.11488 -0.94392,-0.22158 -1.40429,-0.34788 -2.16968,-0.59523 -4.31829,-1.44063 -6.70703,-2.63896 -0.78544,-0.39402 -1.44513,-0.74685 -2.19301,-1.17292 -0.14887,-0.0848 -0.17736,-0.10236 -0.16767,-0.10334 0.009,-8.9e-4 0.0259,0.007 0.07,0.0327 1.08119,0.62834 2.28981,1.25856 3.45087,1.7994 2.4311,1.13244 4.85735,1.97131 7.0586,2.4405 0.0612,0.013 0.1144,0.0247 0.11816,0.0258 0.01,0.003 0.008,0.0133 -0.002,0.013 -0.005,-1.5e-4 -0.10547,-0.0219 -0.22364,-0.0484 z"
   style="fill:#e38b29;fill-opacity:1;stroke-width:0.0355807;stroke-linecap:round" /></svg>
