<?xml version="1.0" encoding="utf-8"?>

<!DOCTYPE svg PUBLIC "-//W3C//DTD SVG 1.1//EN" "http://www.w3.org/Graphics/SVG/1.1/DTD/svg11.dtd">
<!-- Uploaded to: SVG Repo, www.svgrepo.com, Generator: SVG Repo Mixer Tools -->
<svg version="1.1" id="_x32_" xmlns="http://www.w3.org/2000/svg" xmlns:xlink="http://www.w3.org/1999/xlink" 
	 viewBox="0 0 512 512"  xml:space="preserve">
<style type="text/css">
	.st0{fill:#000000;}
</style>
<g>
	<path class="st0" d="M414.5,171.662c21.175,0,38.333-17.144,38.333-38.334c0-21.182-17.158-38.326-38.333-38.34
		c-21.183,0.014-38.334,17.158-38.334,38.34C376.166,154.518,393.317,171.662,414.5,171.662z M396.993,115.842
		c4.508-4.508,10.652-7.253,17.506-7.259c6.847,0.006,12.984,2.752,17.492,7.259c4.48,4.502,7.253,10.645,7.253,17.485
		c0,6.862-2.773,13.005-7.253,17.506c-4.508,4.48-10.644,7.232-17.492,7.232c-6.855,0-12.999-2.752-17.506-7.232
		c-4.48-4.501-7.246-10.644-7.246-17.506C389.748,126.488,392.514,120.344,396.993,115.842z"/>
	<rect x="407.702" y="55.594" class="st0" width="13.588" height="26.608"/>
	<rect x="407.702" y="184.467" class="st0" width="13.588" height="26.587"/>
	<polygon class="st0" points="373.606,101.87 350.575,88.581 343.777,100.349 366.816,113.653 	"/>
	<polygon class="st0" points="485.222,166.3 462.183,153.01 455.392,164.778 478.396,178.082 	"/>
	<polygon class="st0" points="373.606,164.778 366.816,153.01 343.777,166.3 350.575,178.082 	"/>
	<polygon class="st0" points="485.222,100.349 478.396,88.581 455.392,101.87 462.183,113.653 	"/>
	<path class="st0" d="M256.004,160.583L0,456.406h512L256.004,160.583z M256.004,189.559L470.51,437.442H210.488L256.004,189.559z"
		/>
</g>
</svg>